<svg id="visual" viewBox="0 0 900 600" width="900" height="600" xmlns="http://www.w3.org/2000/svg" xmlns:xlink="http://www.w3.org/1999/xlink" version="1.1"><path d="M0 139L82 253L164 241L245 283L327 205L409 175L491 235L573 115L655 145L736 127L818 193L900 115L900 0L818 0L736 0L655 0L573 0L491 0L409 0L327 0L245 0L164 0L82 0L0 0Z" fill="#cdd8ea"></path><path d="M0 343L82 361L164 355L245 391L327 373L409 289L491 337L573 319L655 337L736 367L818 271L900 415L900 113L818 191L736 125L655 143L573 113L491 233L409 173L327 203L245 281L164 239L82 251L0 137Z" fill="#bbcfe6"></path><path d="M0 511L82 511L164 427L245 445L327 445L409 439L491 499L573 475L655 415L736 433L818 415L900 481L900 413L818 269L736 365L655 335L573 317L491 335L409 287L327 371L245 389L164 353L82 359L0 341Z" fill="#a7c7e2"></path><path d="M0 547L82 559L164 481L245 529L327 547L409 493L491 535L573 523L655 499L736 535L818 511L900 541L900 479L818 413L736 431L655 413L573 473L491 497L409 437L327 443L245 443L164 425L82 509L0 509Z" fill="#91bfdd"></path><path d="M0 601L82 601L164 601L245 601L327 601L409 601L491 601L573 601L655 601L736 601L818 601L900 601L900 539L818 509L736 533L655 497L573 521L491 533L409 491L327 545L245 527L164 479L82 557L0 545Z" fill="#78b7d7"></path></svg>